<svg width="157" height="41" viewBox="0 0 157 41" fill="none" xmlns="http://www.w3.org/2000/svg">
<path d="M44.6302 11.1715L43.5054 15.3302C42.0391 15.3302 40.2907 15.3302 38.1464 15.3302C32.6079 15.3302 28.9264 20.2256 28.9264 27.262C28.9264 29.4373 29.6773 34.0021 35.1434 34.3075L35.064 34.3392H47.2212L51.9985 11.1715H44.6302ZM40.6167 32.2685C40.6251 32.2543 40.638 32.2427 40.6464 32.2291H40.7181L40.6167 32.2685ZM38.6107 29.6581C36.7524 29.6581 36.0022 28.3003 36.0022 26.6203C36.0022 23.9401 36.93 20.4748 39.7535 20.4748C41.5755 20.4748 42.2909 21.7952 42.2909 23.9052C42.2916 26.0831 41.3263 29.6581 38.6107 29.6581ZM64.4791 15.7951C64.2919 15.7951 64.0943 15.8112 63.8968 15.8338L63.9581 15.7951H52.7591L48.9374 34.3404H56.0113L57.6183 26.5847C58.4764 22.7243 59.9414 21.4046 62.9425 21.4046C63.8361 21.4046 64.7813 21.4046 65.6594 21.4046L66.9804 15.7951C66.2909 15.7951 65.6594 15.7951 64.4791 15.7951ZM59.0136 18.6876L59.1382 18.6153C59.1221 18.6412 59.1008 18.6612 59.084 18.6876H59.0136ZM144.152 15.7951C143.463 15.7951 142.829 15.7951 141.65 15.7951C141.463 15.7951 141.267 15.8112 141.07 15.8338L141.131 15.7951H129.932L126.11 34.3404H133.184L134.791 26.5847C135.649 22.7243 137.113 21.4046 140.114 21.4046C141.008 21.4046 141.952 21.4046 142.829 21.4046L144.152 15.7951ZM136.185 18.6876L136.309 18.6153C136.293 18.6412 136.272 18.6612 136.256 18.6876H136.185ZM80.7008 15.7951L79.0931 23.3325C78.521 25.7273 78.3409 29.1577 75.1978 29.1577C74.1615 29.1577 73.1607 28.5495 73.1607 27.5126C73.1607 26.978 73.1962 26.4414 73.4461 25.4768L75.5187 15.7944H68.4448C66.2651 26.0114 65.6936 28.2641 65.6936 29.8718C65.6936 33.4443 68.3376 34.3398 71.5892 34.3398C71.6079 34.3398 71.626 34.3359 71.646 34.3359L71.6408 34.3398H83.9162L87.7747 15.7944H80.7008V15.7951ZM77.5119 32.0238C77.5261 32.009 77.5409 31.9948 77.5551 31.9793H77.6281L77.5119 32.0238ZM118.292 15.3302C113.718 15.3302 109.966 16.4388 108.823 21.4039H115.47C115.861 20.01 116.862 19.5096 118.292 19.5096C119.399 19.5096 120.508 19.8324 120.508 21.1173C120.508 23.3674 117.327 23.1537 115.325 23.2609C111.914 23.5166 109.178 24.1622 107.662 25.8991C107.837 24.9144 107.928 23.9162 107.928 22.9393C107.928 19.711 106.436 15.941 101.444 15.8073L101.478 15.7944H89.7078L84.5606 40.3412H91.6351L93.3164 32.0871C94.8518 34.5509 96.8876 34.8021 98.8904 34.8021C102.496 34.8021 104.934 32.7173 106.361 29.8976C106.377 33.4475 109.193 34.3392 112.363 34.3392C112.593 34.3392 112.834 34.3327 113.074 34.3243L113.069 34.3392H124.713C124.7 34.3036 124.691 34.2823 124.683 34.2585C124.698 34.2998 124.713 34.3392 124.713 34.3392C124.713 34.3392 127.297 23.1543 127.297 20.2611C127.294 15.7951 121.649 15.3302 118.292 15.3302ZM96.2412 17.8599C96.2303 17.876 96.2167 17.8877 96.2051 17.9019H96.1354L96.2412 17.8599ZM97.1361 29.6581C94.8117 29.6581 94.5651 27.2995 94.5651 26.6203C94.5651 25.0126 95.1365 20.4748 98.2803 20.4748C100.388 20.4748 100.853 21.9037 100.853 23.7613C100.853 26.1554 99.9951 29.6581 97.1361 29.6581ZM118.072 32.5565L118.076 32.5513H118.148C118.127 32.5513 118.098 32.5565 118.072 32.5565ZM115.683 30.6221C114.541 30.6221 113.432 30.3018 113.432 29.0157C113.432 27.6236 114.542 27.0496 115.719 26.9424C117.006 26.8359 118.326 26.6926 119.472 26.1205C119.041 28.873 118.076 30.6221 115.683 30.6221ZM151.124 29.086C152.267 29.086 152.876 29.0157 153.447 28.9802L152.377 34.0886C151.125 34.3411 149.84 34.447 148.553 34.5529C147.014 34.5529 145.479 34.5529 144.086 33.8033C142.836 33.124 142.158 31.6952 142.158 30.3018C142.158 29.3004 142.371 28.6205 142.551 27.7644L144.193 20.1539L145.122 15.7951L146.049 11.7287H153.125L152.196 15.7951H156.02L155.019 20.1539H151.267L150.015 26.1192C149.871 26.7281 149.694 27.3705 149.694 27.9774C149.694 28.5844 150.016 29.086 151.124 29.086ZM154.985 26.0753C154.202 26.0753 153.506 26.6403 153.506 27.5145C153.506 28.3945 154.202 28.9614 154.985 28.9614C155.771 28.9614 156.468 28.3945 156.468 27.5145C156.468 26.6403 155.77 26.0753 154.985 26.0753ZM154.985 28.6535C154.38 28.6535 153.897 28.1757 153.897 27.5151C153.897 26.8598 154.38 26.3846 154.985 26.3846C155.584 26.3846 156.075 26.8598 156.075 27.5151C156.075 28.1737 155.583 28.6535 154.985 28.6535ZM155.653 27.1826C155.653 26.832 155.424 26.7055 155.02 26.7055H154.414V28.3229H154.732V27.6294H154.933L155.327 28.3229H155.662L155.23 27.6146C155.465 27.5971 155.653 27.4803 155.653 27.1826ZM154.731 27.3808V26.9566H155C155.148 26.9566 155.332 26.9876 155.332 27.1568C155.332 27.3544 155.203 27.3821 155.017 27.3821L154.731 27.3808Z" fill="white"/>
<path d="M21.0361 16.0322L18.4928 8.10151C18.1519 7.0381 17.6818 6.24135 17.0736 5.71385C16.4712 5.18309 15.8217 4.82088 15.1315 4.61944C14.44 4.41799 13.7336 4.35794 13.0085 4.438C12.2841 4.51807 11.6397 4.64655 11.0715 4.82863C10.5021 5.00748 9.89966 5.27478 9.26432 5.62667C8.62899 5.98115 8.08599 6.4357 7.63983 6.99613C7.19304 7.56044 6.87731 8.2287 6.69071 9.00931C6.50411 9.78927 6.58353 10.7119 6.9225 11.7753L9.92548 21.1458L4.91191 21.1523L2.06454 12.2635C1.6455 10.9553 1.58739 9.6808 1.88827 8.445C2.18979 7.21114 2.71924 6.06961 3.48177 5.02233C4.24042 3.977 5.17146 3.06791 6.26457 2.30409C7.3622 1.53639 8.50954 0.961109 9.70918 0.582105C10.8791 0.210203 12.1246 0.0158588 13.4418 0.00100852C14.7609 -0.0151331 16.0192 0.162424 17.2189 0.5382C18.4166 0.910748 19.4961 1.48022 20.4575 2.24921C21.4163 3.01948 22.1298 4.01509 22.5908 5.24444L26.0477 16.0296L21.0361 16.0322Z" fill="white"/>
<path d="M5.01228 21.1519L7.00028 27.3522C7.33022 28.3833 7.79832 29.1736 8.41041 29.7211C9.02185 30.2654 9.67333 30.6373 10.3629 30.8375C11.0544 31.0383 11.7627 31.0964 12.4839 31.0163C13.207 30.9395 13.8533 30.8097 14.4222 30.6283C14.9929 30.4468 15.5934 30.1795 16.2307 29.8296C16.8654 29.4751 17.4064 29.018 17.8532 28.4575C18.3013 27.8971 18.6158 27.2159 18.7953 26.425C18.976 25.6295 18.9005 24.7127 18.568 23.6822L16.1209 16.0427L21.1338 16.0376L23.4279 23.1934C23.8469 24.5003 23.907 25.7716 23.6061 27.0093C23.3065 28.2458 22.7745 29.3879 22.0126 30.4333C21.2501 31.4786 20.321 32.387 19.2285 33.1509C18.1322 33.9205 16.9855 34.4938 15.7819 34.8761C14.6133 35.2454 13.3704 35.4397 12.0507 35.4585C10.7348 35.4727 9.47576 35.2925 8.27611 34.9187C7.07454 34.5442 5.99628 33.9747 5.03423 33.2077C4.07413 32.4368 3.3652 31.4386 2.89967 30.2105L0 21.1609L5.01228 21.1519Z" fill="white"/>
</svg>
