<svg width="157" height="41" viewBox="0 0 157 41" fill="none" xmlns="http://www.w3.org/2000/svg">
<path d="M44.6302 11.1714L43.5054 15.3301C42.0391 15.3301 40.2907 15.3301 38.1464 15.3301C32.6079 15.3301 28.9264 20.2255 28.9264 27.262C28.9264 29.4372 29.6773 34.002 35.1434 34.3074L35.064 34.3391H47.2212L51.9985 11.1714H44.6302ZM40.6167 32.2684C40.6251 32.2542 40.638 32.2426 40.6464 32.229H40.7181L40.6167 32.2684ZM38.6107 29.658C36.7524 29.658 36.0022 28.3002 36.0022 26.6202C36.0022 23.94 36.93 20.4747 39.7535 20.4747C41.5755 20.4747 42.2909 21.7951 42.2909 23.9052C42.2916 26.083 41.3263 29.658 38.6107 29.658ZM64.4791 15.795C64.2919 15.795 64.0943 15.8111 63.8968 15.8337L63.9581 15.795H52.7591L48.9374 34.3404H56.0113L57.6183 26.5847C58.4764 22.7242 59.9414 21.4045 62.9425 21.4045C63.8361 21.4045 64.7813 21.4045 65.6594 21.4045L66.9804 15.795C66.2909 15.795 65.6594 15.795 64.4791 15.795ZM59.0136 18.6876L59.1382 18.6152C59.1221 18.6411 59.1008 18.6611 59.084 18.6876H59.0136ZM144.152 15.795C143.463 15.795 142.829 15.795 141.65 15.795C141.463 15.795 141.267 15.8111 141.07 15.8337L141.131 15.795H129.932L126.11 34.3404H133.184L134.791 26.5847C135.649 22.7242 137.113 21.4045 140.114 21.4045C141.008 21.4045 141.952 21.4045 142.829 21.4045L144.152 15.795ZM136.185 18.6876L136.309 18.6152C136.293 18.6411 136.272 18.6611 136.256 18.6876H136.185ZM80.7008 15.795L79.0931 23.3324C78.521 25.7272 78.3409 29.1576 75.1978 29.1576C74.1615 29.1576 73.1607 28.5494 73.1607 27.5125C73.1607 26.9779 73.1962 26.4413 73.4461 25.4767L75.5187 15.7943H68.4448C66.2651 26.0113 65.6936 28.264 65.6936 29.8717C65.6936 33.4442 68.3376 34.3397 71.5892 34.3397C71.6079 34.3397 71.626 34.3358 71.646 34.3358L71.6408 34.3397H83.9162L87.7747 15.7943H80.7008V15.795ZM77.5119 32.0237C77.5261 32.0089 77.5409 31.9947 77.5551 31.9792H77.6281L77.5119 32.0237ZM118.292 15.3301C113.718 15.3301 109.966 16.4387 108.823 21.4039H115.47C115.861 20.0099 116.862 19.5095 118.292 19.5095C119.399 19.5095 120.508 19.8323 120.508 21.1172C120.508 23.3673 117.327 23.1536 115.325 23.2608C111.914 23.5165 109.178 24.1621 107.662 25.899C107.837 24.9143 107.928 23.9161 107.928 22.9392C107.928 19.7109 106.436 15.9409 101.444 15.8072L101.478 15.7943H89.7078L84.5606 40.3412H91.6351L93.3164 32.087C94.8518 34.5508 96.8876 34.802 98.8904 34.802C102.496 34.802 104.934 32.7172 106.361 29.8976C106.377 33.4474 109.193 34.3391 112.363 34.3391C112.593 34.3391 112.834 34.3326 113.074 34.3242L113.069 34.3391H124.713C124.7 34.3036 124.691 34.2822 124.683 34.2584C124.698 34.2997 124.713 34.3391 124.713 34.3391C124.713 34.3391 127.297 23.1542 127.297 20.261C127.294 15.795 121.649 15.3301 118.292 15.3301ZM96.2412 17.8598C96.2303 17.876 96.2167 17.8876 96.2051 17.9018H96.1354L96.2412 17.8598ZM97.1361 29.658C94.8117 29.658 94.5651 27.2994 94.5651 26.6202C94.5651 25.0125 95.1365 20.4747 98.2803 20.4747C100.388 20.4747 100.853 21.9036 100.853 23.7612C100.853 26.1553 99.9951 29.658 97.1361 29.658ZM118.072 32.5564L118.076 32.5512H118.148C118.127 32.5512 118.098 32.5564 118.072 32.5564ZM115.683 30.622C114.541 30.622 113.432 30.3017 113.432 29.0156C113.432 27.6235 114.542 27.0495 115.719 26.9424C117.006 26.8358 118.326 26.6925 119.472 26.1204C119.041 28.8729 118.076 30.622 115.683 30.622ZM151.124 29.086C152.267 29.086 152.876 29.0156 153.447 28.9801L152.377 34.0885C151.125 34.341 149.84 34.4469 148.553 34.5528C147.014 34.5528 145.479 34.5528 144.086 33.8032C142.836 33.1239 142.158 31.6951 142.158 30.3017C142.158 29.3003 142.371 28.6204 142.551 27.7643L144.193 20.1538L145.122 15.795L146.049 11.7286H153.125L152.196 15.795H156.02L155.019 20.1538H151.267L150.015 26.1191C149.871 26.728 149.694 27.3704 149.694 27.9774C149.694 28.5843 150.016 29.086 151.124 29.086ZM154.985 26.0752C154.202 26.0752 153.506 26.6402 153.506 27.5144C153.506 28.3944 154.202 28.9613 154.985 28.9613C155.771 28.9613 156.468 28.3944 156.468 27.5144C156.468 26.6402 155.77 26.0752 154.985 26.0752ZM154.985 28.6534C154.38 28.6534 153.897 28.1756 153.897 27.5151C153.897 26.8597 154.38 26.3845 154.985 26.3845C155.584 26.3845 156.075 26.8597 156.075 27.5151C156.075 28.1736 155.583 28.6534 154.985 28.6534ZM155.653 27.1825C155.653 26.8319 155.424 26.7054 155.02 26.7054H154.414V28.3228H154.732V27.6293H154.933L155.327 28.3228H155.662L155.23 27.6145C155.465 27.5971 155.653 27.4802 155.653 27.1825ZM154.731 27.3808V26.9566H155C155.148 26.9566 155.332 26.9875 155.332 27.1567C155.332 27.3543 155.203 27.382 155.017 27.382L154.731 27.3808Z" fill="#009BD9"/>
<path d="M21.0361 16.0322L18.4928 8.10151C18.1519 7.0381 17.6818 6.24135 17.0736 5.71385C16.4712 5.18309 15.8217 4.82088 15.1315 4.61944C14.44 4.41799 13.7336 4.35794 13.0085 4.438C12.2841 4.51807 11.6397 4.64655 11.0715 4.82863C10.5021 5.00748 9.89966 5.27478 9.26432 5.62667C8.62899 5.98115 8.08599 6.4357 7.63983 6.99613C7.19304 7.56044 6.87731 8.2287 6.69071 9.00931C6.50411 9.78927 6.58353 10.7119 6.9225 11.7753L9.92548 21.1458L4.91191 21.1523L2.06454 12.2635C1.6455 10.9553 1.58739 9.6808 1.88827 8.445C2.18979 7.21114 2.71924 6.06961 3.48177 5.02233C4.24042 3.977 5.17146 3.06791 6.26457 2.30409C7.3622 1.53639 8.50954 0.961109 9.70918 0.582105C10.8791 0.210203 12.1246 0.0158588 13.4418 0.00100852C14.7609 -0.0151331 16.0192 0.162424 17.2189 0.5382C18.4166 0.910748 19.4961 1.48022 20.4575 2.24921C21.4163 3.01948 22.1298 4.01509 22.5908 5.24444L26.0477 16.0296L21.0361 16.0322Z" fill="#009BD9"/>
<path d="M5.01228 21.1519L7.00028 27.3522C7.33022 28.3833 7.79832 29.1736 8.41041 29.7211C9.02185 30.2654 9.67333 30.6373 10.3629 30.8375C11.0544 31.0383 11.7627 31.0964 12.4839 31.0163C13.207 30.9395 13.8533 30.8097 14.4222 30.6283C14.9929 30.4469 15.5934 30.1796 16.2307 29.8296C16.8654 29.4751 17.4064 29.018 17.8532 28.4576C18.3013 27.8971 18.6158 27.216 18.7953 26.425C18.976 25.6296 18.9005 24.7127 18.568 23.6822L16.1209 16.0428L21.1338 16.0376L23.4279 23.1935C23.8469 24.5003 23.907 25.7716 23.6061 27.0093C23.3065 28.2458 22.7745 29.388 22.0126 30.4333C21.2501 31.4786 20.321 32.3871 19.2285 33.1509C18.1322 33.9205 16.9855 34.4939 15.7819 34.8761C14.6133 35.2454 13.3704 35.4398 12.0507 35.4585C10.7348 35.4727 9.47576 35.2926 8.27611 34.9187C7.07454 34.5442 5.99628 33.9748 5.03423 33.2077C4.07413 32.4368 3.3652 31.4386 2.89967 30.2105L0 21.1609L5.01228 21.1519Z" fill="#0070BA"/>
</svg>
